<svg id="Layer_1" data-name="Layer 1" xmlns="http://www.w3.org/2000/svg" xmlns:xlink="http://www.w3.org/1999/xlink" viewBox="0 0 529.52 475.13"><defs><style>.cls-1{fill:#231f20;}.cls-2{fill:#fbb040;}.cls-3{fill:#343895;}.cls-4{fill:url(#Fading_Sky);}.cls-5{fill:#474a4a;}</style><linearGradient id="Fading_Sky" x1="187.58" y1="493.25" x2="550.83" y2="496.91" gradientTransform="matrix(-1, 0, 0, 1, 738.72, 0)" gradientUnits="userSpaceOnUse"><stop offset="0" stop-color="#2484c6"/><stop offset="1" stop-color="#2484c6" stop-opacity="0"/></linearGradient></defs><path d="M431.8,230.57V449.26H415.65V237.76c0-25.48-17-46.42-37.8-46.42H358.12a12.79,12.79,0,0,1,.16,1.74v7.37c0,6.45-4.62,11.66-10.34,11.66h-78.3c-5.65,0-10.27-5.21-10.27-11.66v-7.37a12.79,12.79,0,0,1,.16-1.74H239.8c-20.77,0-37.8,20.94-37.8,46.42v211.5H185.77V230.57c0-30.29,23.55-54.7,52.6-54.7H379.21C408.33,175.87,431.8,200.28,431.8,230.57Z" transform="translate(-23.36 -175.87)"/><path d="M431.8,540.29v56c0,30.21-23.47,54.7-52.59,54.7H238.37c-29.05,0-52.6-24.49-52.6-54.7v-56H202v48.82c0,25.48,17,46.33,37.8,46.33H377.85c20.77,0,37.8-20.85,37.8-46.33V540.29Z" transform="translate(-23.36 -175.87)"/><rect class="cls-1" x="236.36" y="442.88" width="98.19" height="6.03" rx="2.8"/><path class="cls-2" d="M312.67,270.91v77.43q0,30.11-14.67,46.15t-37.39,16a45.12,45.12,0,0,1-20.27-4.66,53,53,0,0,1-16.42-12.57,60.57,60.57,0,0,1-11.09-18.62,63.46,63.46,0,0,1-4.11-23v-80.8h8.74v80.8a54.48,54.48,0,0,0,3.34,19.11A49.37,49.37,0,0,0,230,386.47,43.42,43.42,0,0,0,243.75,397a38,38,0,0,0,16.86,3.86v-9.9a30.18,30.18,0,0,1-13.45-3.07,35,35,0,0,1-11-8.41A40.36,40.36,0,0,1,228.73,367,42.49,42.49,0,0,1,226,351.71v-80.8h8.73v80.8a32.65,32.65,0,0,0,2,11.49,30.12,30.12,0,0,0,5.58,9.4,26,26,0,0,0,8.27,6.34,22.81,22.81,0,0,0,10.09,2.28,23.87,23.87,0,0,0,10.19-2.08,21,21,0,0,0,7.92-6.83,31.5,31.5,0,0,0,5.05-10.7,56.7,56.7,0,0,0,1.57-14.26V270.91Z" transform="translate(-23.36 -175.87)"/><path class="cls-1" d="M361.18,331.13q1.21,1.77,4.89,7.52t8.56,13.57q4.89,7.8,10.48,16.49t10.57,16.5l8.82,13.86q3.84,6.06,5.24,8.2H378L342.66,354,330.08,369.4v37.87H302.82V271h27.26v55.24L375.15,271h11.71L330.08,340.7v14.45L398.56,271h11.71Z" transform="translate(-23.36 -175.87)"/><path d="M118,488.06v25.23q-10.56,12.15-29,12.15-15.57,0-25.93-10.68-10.45-10.47-10.56-26.7a38.36,38.36,0,0,1,10.72-26.81,37.8,37.8,0,0,1,11.58-8.12,35.3,35.3,0,0,1,28.75.16,37.49,37.49,0,0,1,11.78,8.59l-3.52,3.66a32.86,32.86,0,0,0-10.17-7.48,30.3,30.3,0,0,0-24.52-.37,31.66,31.66,0,0,0-9.82,6.6,33.58,33.58,0,0,0-6.85,9.84,32.46,32.46,0,0,0-2.92,12.15v1.78h5.24v-1.78a26.08,26.08,0,0,1,2.57-10,28.74,28.74,0,0,1,5.79-8.12,26.59,26.59,0,0,1,8.1-5.44,25.31,25.31,0,0,1,20.49.36,27.44,27.44,0,0,1,8.56,6.34l-3.62,3.66a21.87,21.87,0,0,0-6.9-5.29,19.62,19.62,0,0,0-8.71-1.93,19.88,19.88,0,0,0-8.26,1.72,21.53,21.53,0,0,0-6.69,4.72,23.06,23.06,0,0,0-4.58,7,21.67,21.67,0,0,0-1.71,8.54v.21a24.65,24.65,0,0,0,1.75,9.42,24.37,24.37,0,0,0,4.67,7.43,16.31,16.31,0,0,0,6.63,4.45,23.15,23.15,0,0,0,7.83,1.31q8.24,0,13.55-3.24V488.06Z" transform="translate(-23.36 -175.87)"/><path class="cls-2" d="M135.33,441.18,118,459.24l-2.86,3a36.15,36.15,0,0,0-33.33-10.67,36.54,36.54,0,0,0-28.56,28.94c-4.92,26.12,17.37,48.66,43,43.5A36.13,36.13,0,0,0,118,510v20l-.09-.07a50.54,50.54,0,0,1-20,8.32l-3,15.62H82.83l-3-15.62a50.64,50.64,0,0,1-20-8.32l-13,8.89-8.53-8.63,8.74-13.16a50.75,50.75,0,0,1-8.23-20.13l-15.48-3V481.67l15.48-3a51.07,51.07,0,0,1,8.23-20.19l-8.74-13.12,8.53-8.66,13,8.93a50.15,50.15,0,0,1,20-8.37l3-15.57H94.92l3,15.57a50,50,0,0,1,20,8.37l13.07-8.93Z" transform="translate(-23.36 -175.87)"/><path class="cls-3" d="M173.72,523.71l-2.11-11.83a12.35,12.35,0,0,1-1.46,2.4q-1.26,1.79-2.82,3.77t-3.07,3.67a9,9,0,0,1-2.22,2H119.45a3.35,3.35,0,0,1,.2-.74v-.31l36.25-48.17a8.66,8.66,0,0,1,1.21-1.67,26.74,26.74,0,0,1,2-2,22.24,22.24,0,0,1,2.12-1.78,3.18,3.18,0,0,1,1.76-.79h16.92a2.39,2.39,0,0,1,1.86,1.15,10.88,10.88,0,0,1,1.46,2.83c.4,1.12.75,2.29,1.06,3.51s.55,2.25.75,3.09l6.65,44.92Zm-22.55-14h20.44l-3.52-24.61-16.92,23.56Z" transform="translate(-23.36 -175.87)"/><path class="cls-3" d="M264.65,498.68a82.35,82.35,0,0,1-8.71,11.57,41.17,41.17,0,0,1-9.47,7.75,38.56,38.56,0,0,1-11.17,4.35,64.86,64.86,0,0,1-14,1.36H196.28l19.43-55.5h43.8q6,0,8.76,3.46a13.73,13.73,0,0,1,2.72,8.79,28.77,28.77,0,0,1-1.61,9A34.73,34.73,0,0,1,264.65,498.68Zm-34.34-16.33-9.56,27.22h2.61a18.35,18.35,0,0,0,5.95-1.1,36.51,36.51,0,0,0,6.34-2.88,38.3,38.3,0,0,0,5.79-4,21.7,21.7,0,0,0,4.18-4.55l1.36-1.89a10.35,10.35,0,0,0,1.26-2.41c.4-1.11.8-2.2,1.2-3.24a8.09,8.09,0,0,0,.61-2.93,5.47,5.47,0,0,0-.76-3,2.9,2.9,0,0,0-2.67-1.2Z" transform="translate(-23.36 -175.87)"/><path class="cls-3" d="M333.42,489.15l-12.59,34.56h-15a64.48,64.48,0,0,1-12.18-1.15,32.23,32.23,0,0,1-10.68-4,21.86,21.86,0,0,1-7.6-7.8q-2.87-4.92-2.87-12.46a28.05,28.05,0,0,1,2.12-10.36,36,36,0,0,1,5.74-9.74,31.27,31.27,0,0,1,8.35-7.17,19.6,19.6,0,0,1,10.07-2.78h41.59q-2.92,4-5.89,7.49a66.75,66.75,0,0,1-6.5,6.65H301.8a6,6,0,0,0-3.12.89,11.07,11.07,0,0,0-2.77,2.35,19.37,19.37,0,0,0-2.26,3.3A22.64,22.64,0,0,0,292,492.5a16.16,16.16,0,0,0-.81,4.3,10.86,10.86,0,0,0,1,4.24,16.3,16.3,0,0,0,2.51,4.13,15.78,15.78,0,0,0,3.43,3.14,6.52,6.52,0,0,0,3.67,1.26h5.94l2.32-6.81H298.68v-.1a16.37,16.37,0,0,1,1.26-2q1.15-1.72,2.77-3.88c1.07-1.43,2.2-2.86,3.37-4.29a24.35,24.35,0,0,1,3.17-3.3Z" transform="translate(-23.36 -175.87)"/><path class="cls-3" d="M403.8,468.21a29.22,29.22,0,0,1-2.36,3.82c-1.11,1.57-2.28,3.13-3.53,4.66a40.56,40.56,0,0,1-3.62,4c-1.18,1.12-2,1.68-2.57,1.68h-31L355,498.79l9.56-9.64h23.26l-14.4,14.14h-20l-2.22,6.28h38.57c-.07.14-.24.44-.51.89s-.53.93-.8,1.42-.54.94-.81,1.36a7,7,0,0,1-.5.73,29.9,29.9,0,0,1-2.47,2.93q-1.56,1.68-3.07,3.19c-1,1-1.9,1.87-2.67,2.57a8,8,0,0,1-1.26,1.05H327l19.43-55.5Z" transform="translate(-23.36 -175.87)"/><path class="cls-3" d="M420.82,482.35h-19v-.11a11.83,11.83,0,0,1,1.46-2.3c.91-1.26,2-2.65,3.22-4.19s2.52-3,3.83-4.45a20.22,20.22,0,0,1,3.37-3.09h50.45a28.42,28.42,0,0,1-2.37,3.82c-1.11,1.57-2.28,3.13-3.52,4.66a39.36,39.36,0,0,1-3.63,4c-1.17,1.12-2,1.68-2.56,1.68H440.15l-14.5,41.36H406.32Z" transform="translate(-23.36 -175.87)"/><path class="cls-3" d="M497.65,506.12v-.63a5.39,5.39,0,0,0-.3-1.73,1.13,1.13,0,0,0-1.11-.89H476.1a10,10,0,0,1-5.44-1.52,15.33,15.33,0,0,1-4.17-3.87,17.27,17.27,0,0,1-2.67-5.19,17.91,17.91,0,0,1-.91-5.55,14.38,14.38,0,0,1,1.41-5.7A29.36,29.36,0,0,1,468,475a22,22,0,0,1,5-4.81,9.92,9.92,0,0,1,5.64-1.94H530a75.86,75.86,0,0,1-5.28,7.12c-2,2.38-4.18,4.75-6.6,7.12H484.86c-.74,0-1.38.52-1.91,1.57a6,6,0,0,0-.81,2.52v.52c0,.07.14.23.4.47l.61.58a3.89,3.89,0,0,0,1.16.78,4.47,4.47,0,0,0,.85.37h19.13a9.58,9.58,0,0,1,5.64,1.62,13.05,13.05,0,0,1,3.78,4.08,18.54,18.54,0,0,1,2.11,5.29,23.18,23.18,0,0,1,.66,5.24v.63a15.92,15.92,0,0,1-1.21,5.81,24,24,0,0,1-3.17,5.7,18.65,18.65,0,0,1-4.53,4.35,9.39,9.39,0,0,1-5.29,1.73H450.93a29.07,29.07,0,0,1,2.06-3.35q1.56-2.31,3.33-4.66t3.27-4.19c1-1.22,1.61-1.83,1.81-1.83h34.24c1,0,1.59-.32,1.76-.95a8,8,0,0,0,.25-2Z" transform="translate(-23.36 -175.87)"/><path class="cls-4" d="M531.14,452.32h-32.5a6.65,6.65,0,0,1,1.67.49c.58.17,1.16.36,1.73.54,3.22,1,6.36,2.26,9.65,3.09,4.36,1.11,8.79,1.8,13.18,2.79,4.15.93,8.64,2,12.2,4.48a13.55,13.55,0,0,1,4.75,5.77c1.78,4.25,1.08,9,1.17,13.55.07,3.45,0,6.91,0,10.37v17.31c0,.33,0,.67,0,1,.84,12-5.23,18-21.74,17.17H157.71a26,26,0,0,1-7.79-1.16c4,4.34,10.4,7.19,17.65,7.19H531.14c12,0,21.73-7.73,21.73-17.18V469.5C552.87,460.05,543.09,452.32,531.14,452.32Z" transform="translate(-23.36 -175.87)"/><rect class="cls-5" x="255.24" y="19.75" width="41.15" height="4.77" rx="2.13"/><ellipse class="cls-5" cx="313.24" cy="21.21" rx="5.43" ry="5.64"/></svg>