<svg id="Layer_1" data-name="Layer 1" xmlns="http://www.w3.org/2000/svg" xmlns:xlink="http://www.w3.org/1999/xlink" viewBox="0 0 529.5 475.1"><defs><style>.cls-1,.cls-3{fill:#231f20;}.cls-2{font-size:198.04px;}.cls-2,.cls-5{fill:#fbb040;}.cls-2,.cls-3,.cls-4{font-family:Balans-Normal, Balans;}.cls-3{font-size:195.22px;}.cls-4,.cls-6{font-size:104.71px;}.cls-6{fill:#343895;font-family:Airstrike;}.cls-7{letter-spacing:-0.02em;}.cls-8{fill:url(#Fading_Sky);}.cls-9{fill:#474a4a;}</style><linearGradient id="Fading_Sky" x1="187.58" y1="423.25" x2="550.83" y2="426.91" gradientTransform="matrix(-1, 0, 0, 1, 738.72, 0)" gradientUnits="userSpaceOnUse"><stop offset="0" stop-color="#2484c6"/><stop offset="1" stop-color="#2484c6" stop-opacity="0"/></linearGradient></defs><path d="M431.8,160.6V379.3H415.7V167.8c0-25.5-17.1-46.5-37.8-46.5H358.1a11,11,0,0,1,.2,1.8v7.3c0,6.5-4.6,11.7-10.4,11.7H269.6c-5.6,0-10.2-5.2-10.2-11.7v-7.3c0-.6.1-1.2.1-1.8H239.8c-20.8,0-37.8,21-37.8,46.5V379.3H185.8V160.6c0-30.3,23.5-54.7,52.6-54.7H379.2C408.3,105.9,431.8,130.3,431.8,160.6Z" transform="translate(-23.4 -105.9)"/><path d="M431.8,470.3v56c0,30.2-23.5,54.7-52.6,54.7H238.4c-29.1,0-52.6-24.5-52.6-54.7v-56H202v48.8c0,25.5,17,46.3,37.8,46.3H377.9c20.7,0,37.8-20.8,37.8-46.3V470.3Z" transform="translate(-23.4 -105.9)"/><rect class="cls-1" x="236.4" y="442.9" width="98.2" height="6.03" rx="2.8"/><text class="cls-2" transform="translate(171.6 233.3) scale(0.88 1)">U</text><text class="cls-3" transform="translate(264.4 231.4) scale(0.89 1)">K</text><text class="cls-4" transform="translate(24.5 348.8) scale(0.96 1)">G</text><path class="cls-5" d="M135.3,371.2l-17.3,18-2.9,3a36,36,0,0,0-33.3-10.6C67.5,384.3,56,396,53.2,410.5c-4.9,26.1,17.4,48.7,43,43.5A36.4,36.4,0,0,0,118,440v20h-.1a52.1,52.1,0,0,1-20,8.3l-3,15.6H82.8l-2.9-15.6a51.5,51.5,0,0,1-20-8.3l-13,8.8-8.6-8.6,8.8-13.1a51.5,51.5,0,0,1-8.3-20.2l-15.4-3V411.7l15.4-3a51.5,51.5,0,0,1,8.3-20.2l-8.8-13.1,8.6-8.7,13,8.9a50,50,0,0,1,20-8.3l2.9-15.6H94.9l3,15.6a50.6,50.6,0,0,1,20,8.3l13-8.9Z" transform="translate(-23.4 -105.9)"/><text class="cls-6" transform="translate(94.1 347.8) scale(0.96 1)">adg<tspan class="cls-7" x="215" y="0">e</tspan><tspan x="278.2" y="0">ts</tspan></text><path class="cls-8" d="M531.1,382.3H498.6a8.4,8.4,0,0,1,1.7.5l1.7.6c3.3,1,6.4,2.2,9.7,3s8.8,1.8,13.2,2.8,8.6,2,12.2,4.5a14.1,14.1,0,0,1,4.7,5.8c1.8,4.2,1.1,9,1.2,13.5s0,6.9,0,10.4v18.3c.8,12-5.2,18-21.7,17.2H157.7a25,25,0,0,1-7.8-1.2c4,4.4,10.4,7.2,17.7,7.2H531.1c12,0,21.8-7.7,21.8-17.2V399.5C552.9,390.1,543.1,382.3,531.1,382.3Z" transform="translate(-23.4 -105.9)"/><rect class="cls-9" x="255.2" y="19.8" width="41.2" height="4.77" rx="2.1"/><ellipse class="cls-9" cx="313.2" cy="21.2" rx="5.4" ry="5.6"/></svg>